Patient4_TMGait_0pt2_01_left_11_GRF.mot
version=1
nRows=52
nColumns=19
inDegrees=no
endheader
time	F1x	F1y	F1z	M1x	M1y	M1z	F2x	F2y	F2z	M2x	M2y	M2z	EC1x	EC1y	EC1z	EC2x	EC2y	EC2z
24.63	7.5852	97.3776	3.461	-32.9344	-1.5174	91.2995	-3.187	682.8659	-36.8073	268.743	42.96	701.2017	-0.0592	0.0182	-0.0073	-0.0462	0.0165	0.9585
24.6535	5.314	91.1331	4.6525	-30.8883	-3.1154	85.3462	-5.6558	702.8233	-38.1449	276.5334	44.8551	720.4363	-0.0592	0.0182	-0.0073	-0.0462	0.0165	0.9585
24.677	2.8642	82.5465	5.5174	-28.0325	-4.5132	77.2218	-8.1257	724.868	-39.5492	285.1412	46.7933	741.7574	-0.0592	0.0182	-0.0073	-0.0462	0.0165	0.9585
24.7005	0.44246	71.8523	5.9448	-24.4436	-5.5527	67.1615	-10.4241	747.599	-40.8848	294.0041	48.58	763.791	-0.0592	0.0182	-0.0073	-0.0462	0.0165	0.9585
24.724	-1.7083	59.6243	5.8983	-20.3156	-6.1186	55.7033	-12.4276	769.8412	-42.0415	302.6453	50.0578	785.3483	-0.0592	0.0182	-0.0073	-0.0462	0.0165	0.9585
24.7475	-3.3193	46.6988	5.398	-15.9349	-6.1285	43.6215	-14.0331	790.4886	-42.9736	310.6156	51.1388	805.275	-0.0592	0.0182	-0.0073	-0.0462	0.0165	0.9585
24.771	-4.1466	34.069	4.5239	-11.6439	-5.5622	31.8365	-15.1513	808.2564	-43.7015	317.397	51.807	822.2224	-0.0592	0.0182	-0.0073	-0.0462	0.0165	0.9585
24.7945	-4.1334	22.7399	3.4312	-7.7879	-4.5343	21.2721	-15.7083	821.6686	-44.2817	322.4025	52.0926	834.647	-0.0592	0.0182	-0.0073	-0.0462	0.0165	0.9585
24.818	-3.5763	13.4807	2.3344	-4.6289	-3.336	12.6324	-15.6389	829.4022	-44.7619	325.1185	52.0256	841.1536	-0.0592	0.0182	-0.0073	-0.0462	0.0165	0.9585
24.8415	-2.8144	6.4809	1.3829	-2.2317	-2.2127	6.0833	-14.9013	830.8666	-45.137	325.3368	51.597	841.074	-0.0592	0.0182	-0.0073	-0.0462	0.0165	0.9585
24.865	-2.0582	1.4578	0.63241	-0.50098	-1.2791	1.3448	-13.5083	826.53	-45.3386	323.2789	50.7556	834.8014	-0.0592	0.0182	-0.0073	-0.0462	0.0165	0.9585
24.8885	-1.4131	-2.0809	0.083506	0.73223	-0.56468	-2.0594	-11.5301	817.7731	-45.254	319.5341	49.426	823.6537	-0.0592	0.0182	-0.0073	-0.0462	0.0165	0.9585
24.912	-0.90614	-4.6478	-0.29379	1.6452	-0.047665	-4.6166	-9.0693	806.533	-44.7756	314.9077	47.5519	809.5175	-0.0592	0.0182	-0.0073	-0.0462	0.0165	0.9585
24.9355	-0.51219	-6.6502	-0.54035	2.3764	0.31946	-6.7047	-6.2327	794.8283	-43.8469	310.2247	45.1264	794.3821	-0.0592	0.0182	-0.0073	-0.0462	0.0165	0.9585
24.959	-0.17338	-8.2927	-0.68993	2.9906	0.58593	-8.4965	-3.1143	784.2377	-42.4818	306.1201	42.2035	779.8327	-0.0592	0.0182	-0.0073	-0.0462	0.0165	0.9585
24.9825	0.18405	-9.5063	-0.75904	3.4525	0.78904	-9.881	0.22595	775.5192	-40.763	302.8879	38.8849	766.6734	-0.0592	0.0182	-0.0073	-0.0462	0.0165	0.9585
25.006	0.63794	-9.8885	-0.74543	3.6052	0.94799	-10.3979	3.7767	768.5167	-38.8089	300.4462	35.283	754.8404	-0.0592	0.0182	-0.0073	-0.0462	0.0165	0.9585
25.0295	1.2616	-8.6589	-0.62374	3.1546	1.0565	-9.1828	7.5453	762.3499	-36.7407	298.4154	31.5041	743.5979	-0.0592	0.0182	-0.0073	-0.0462	0.0165	0.9585
25.053	2.1049	-4.6505	-0.34626	1.6651	1.0772	-4.959	11.5106	755.7567	-34.6747	296.2548	27.6639	731.8823	-0.0592	0.0182	-0.0073	-0.0462	0.0165	0.9585
25.0765	3.1664	3.6309	0.1503	-1.42	0.93882	3.9046	15.5647	747.3947	-32.7251	293.3836	23.9127	718.6104	-0.0592	0.0182	-0.0073	-0.0462	0.0165	0.9585
25.1	4.3658	17.8451	0.93357	-6.7211	0.53583	19.2269	19.4711	735.9459	-30.9788	289.2275	20.424	702.7799	-0.0592	0.0182	-0.0073	-0.0462	0.0165	0.9585
25.1235	5.5045	39.5072	2.0592	-14.8038	-0.26919	42.6849	22.8702	720.1158	-29.47	283.2285	17.3659	683.4413	-0.0592	0.0182	-0.0073	-0.0462	0.0165	0.9585
25.147	6.1987	69.4836	3.5506	-25.9901	-1.6438	75.258	25.3354	698.6989	-28.1665	274.8802	14.8778	659.7131	-0.0592	0.0182	-0.0073	-0.0462	0.0165	0.9585
25.1705	5.878	107.404	5.4102	-40.1351	-3.8	116.5862	26.4804	670.8093	-26.9649	263.8267	13.0302	630.9495	-0.0592	0.0182	-0.0073	-0.0462	0.0165	0.9585
25.194	4.2637	151.4319	7.7028	-56.5344	-6.9113	164.6997	26.0957	636.2841	-25.7137	250.0263	11.7928	597.0627	-0.0592	0.0182	-0.0073	-0.0462	0.0165	0.9585
25.2175	1.5774	198.5333	10.5608	-74.0351	-11.0378	216.2603	24.2595	596.0526	-24.2755	233.8936	11.0401	558.8271	-0.0592	0.0182	-0.0073	-0.0462	0.0165	0.9585
25.241	-1.6964	245.9274	13.8724	-91.5996	-15.8706	268.1549	21.3776	552.2364	-22.5726	216.3217	10.5652	517.9779	-0.0592	0.0182	-0.0073	-0.0462	0.0165	0.9585
25.2645	-5.123	291.873	17.3439	-108.5923	-20.9195	318.4184	18.0423	507.5928	-20.6278	198.4402	10.163	476.7647	-0.0592	0.0182	-0.0073	-0.0462	0.0165	0.9585
25.288	-8.3841	335.1756	20.6534	-124.5831	-25.7129	365.7087	14.7787	464.6588	-18.5468	181.2717	9.7115	437.2615	-0.0592	0.0182	-0.0073	-0.0462	0.0165	0.9585
25.3115	-11.2166	374.7734	23.5388	-139.1871	-29.8685	408.8428	11.8916	425.2571	-16.4891	165.5381	9.2061	400.9661	-0.0592	0.0182	-0.0073	-0.0462	0.0165	0.9585
25.335	-13.3992	409.6375	25.8609	-152.0258	-33.1582	446.6821	9.4795	390.4449	-14.6325	151.6501	8.731	368.7608	-0.0592	0.0182	-0.0073	-0.0462	0.0165	0.9585
25.3585	-14.8034	438.9412	27.5847	-162.7917	-35.5013	478.3205	7.5239	360.6652	-13.1002	139.7759	8.3736	341.028	-0.0592	0.0182	-0.0073	-0.0462	0.0165	0.9585
25.382	-15.4209	462.3464	28.7075	-171.3569	-36.8981	503.4033	5.9786	335.9208	-11.926	129.9135	8.162	317.785	-0.0592	0.0182	-0.0073	-0.0462	0.0165	0.9585
25.4055	-15.3509	480.1201	29.2352	-177.8195	-37.4004	522.2587	4.8267	315.9432	-11.0732	121.9546	8.0598	298.8152	-0.0592	0.0182	-0.0073	-0.0462	0.0165	0.9585
25.429	-14.7695	492.9598	29.2197	-182.4368	-37.1392	535.7054	4.0757	300.3202	-10.4831	115.7304	8.0054	283.7699	-0.0592	0.0182	-0.0073	-0.0462	0.0165	0.9585
25.4525	-13.8851	501.7357	28.7708	-185.5265	-36.3189	544.7591	3.7263	288.5607	-10.1137	111.0358	7.9569	272.2246	-0.0592	0.0182	-0.0073	-0.0462	0.0165	0.9585
25.476	-12.8817	507.2757	28.0146	-187.3898	-35.1521	550.387	3.7469	280.1248	-9.9509	107.6433	7.9135	263.7056	-0.0592	0.0182	-0.0073	-0.0462	0.0165	0.9585
25.4995	-11.8753	510.2353	27.0513	-188.2669	-33.7952	553.3525	4.0777	274.4112	-9.9921	105.3016	7.8995	257.6733	-0.0592	0.0182	-0.0073	-0.0462	0.0165	0.9585
25.523	-10.9158	511.1185	25.9624	-188.3423	-32.3544	554.2247	4.6536	270.7035	-10.223	103.7216	7.9307	253.471	-0.0592	0.0182	-0.0073	-0.0462	0.0165	0.9585
25.5465	-10.016	510.3915	24.8382	-187.7867	-30.925	553.4918	5.4129	268.1994	-10.6122	102.5905	8.0077	250.3627	-0.0592	0.0182	-0.0073	-0.0462	0.0165	0.9585
25.57	-9.1748	508.5916	23.7703	-186.8025	-29.5935	551.6852	6.3016	266.1426	-11.1253	101.6215	8.1281	247.658	-0.0592	0.0182	-0.0073	-0.0462	0.0165	0.9585
25.5935	-8.3948	506.3123	22.8228	-185.6214	-28.4167	549.3825	7.2684	263.9628	-11.7326	100.6059	8.2954	244.8366	-0.0592	0.0182	-0.0073	-0.0462	0.0165	0.9585
25.617	-7.6923	504.1211	22.0215	-184.4694	-27.4209	547.1353	8.2627	261.3374	-12.4083	99.4347	8.5135	241.6065	-0.0592	0.0182	-0.0073	-0.0462	0.0165	0.9585
25.6405	-7.0902	502.5106	21.3613	-183.5459	-26.6059	545.4289	9.2288	258.1638	-13.1218	98.0841	8.7823	237.8872	-0.0592	0.0182	-0.0073	-0.0462	0.0165	0.9585
25.664	-6.6075	501.8628	20.8278	-183.0064	-25.9611	544.645	10.1123	254.4758	-13.8306	96.579	9.0893	233.7278	-0.0592	0.0182	-0.0073	-0.0462	0.0165	0.9585
25.6875	-6.2607	502.4652	20.4067	-182.9649	-25.4756	545.0844	10.8748	250.342	-14.4796	94.9502	9.4017	229.2054	-0.0592	0.0182	-0.0073	-0.0462	0.0165	0.9585
25.711	-6.0719	504.5991	20.1018	-183.5228	-25.1563	547.0597	11.5124	245.766	-15.0076	93.194	9.6639	224.3364	-0.0592	0.0182	-0.0073	-0.0462	0.0165	0.9585
25.7345	-6.0815	508.6543	19.9729	-184.8076	-25.0717	551.0053	12.0637	240.6191	-15.36	91.2492	9.8039	219.0189	-0.0592	0.0182	-0.0073	-0.0462	0.0165	0.9585
25.758	-6.3451	515.242	20.1371	-187.0204	-25.3467	557.5832	12.5983	234.6343	-15.4995	88.9992	9.7509	213.0213	-0.0592	0.0182	-0.0073	-0.0462	0.0165	0.9585
25.7815	-6.8979	525.2171	20.7405	-190.4505	-26.1254	567.6893	13.1738	227.4951	-15.4122	86.3073	9.4629	206.0632	-0.0592	0.0182	-0.0073	-0.0462	0.0165	0.9585
25.805	-7.739	539.5485	21.9244	-195.4357	-27.5397	582.3091	13.7878	218.9307	-15.1106	83.0584	8.9481	197.9093	-0.0592	0.0182	-0.0073	-0.0462	0.0165	0.9585
25.8285	-8.8258	559.1214	23.7971	-202.2936	-29.673	602.3028	14.3572	208.7337	-14.6245	79.169	8.2654	188.3849	-0.0592	0.0182	-0.0073	-0.0462	0.0165	0.9585
